# xmcd CD database file
#
# Track frame offsets:
#	150
#	22990
#	44600
#	64809
#	83496
#	105039
#	119279
#	143696
#	179360
#	200356
#	221159
#	238655
#	261090
#	282891
#	298628
#
# Disc length: 4257 seconds
#
# Revision: 0
# Processed by: cddbd v1.5.1PL0 Copyright (c) Steve Scherf et al.
# Submitted via: CDex 1.51
#
DISCID=d4109f0f
DTITLE=Various Artist - Que Le Pongan Salsa CD 2
DYEAR=1900
DGENRE=Salsa
TTITLE0=Willie Rosario_ Atízame el fogón
TTITLE1=Tommy Olivencia_ Lobo domesticado
TTITLE2=Frankie Ruiz_ Quiero llenarte
TTITLE3=Eddie Santiago_ Silencio
TTITLE4=Marvin Santiago_ La Buruqueña de Dª Inés
TTITLE5=Son Damas_ Corazón de melón
TTITLE6=El Gran Combo_ El menú
TTITLE7=El Gran Combo_ No hay cama pa' tanta gente
TTITLE8=Edgar Joel_ Hasta el sol de hoy
TTITLE9=Andy Montañez_ Payaso
TTITLE10=Lalo Rodríguez_ Voy a escarbar tu cuerpo
TTITLE11=Salsa Kids_ Siempre
TTITLE12=Paquito Guzmán_ Esa mujer
TTITLE13=La Charanga Rubalcaba_ El paralítico
TTITLE14=Edgar Joel_ En las nubes
EXTD=
EXTT0=
EXTT1=
EXTT2=
EXTT3=
EXTT4=
EXTT5=
EXTT6=
EXTT7=
EXTT8=
EXTT9=
EXTT10=
EXTT11=
EXTT12=
EXTT13=
EXTT14=
PLAYORDER=
